<svg xmlns="http://www.w3.org/2000/svg" xmlns:xlink="http://www.w3.org/1999/xlink" width="250" zoomAndPan="magnify" viewBox="0 0 187.5 37.5" height="50" preserveAspectRatio="xMidYMid meet" version="1.0"><defs><g/><clipPath id="0fca930b8c"><path d="M 0.988281 3.03125 L 93.503906 3.03125 L 93.503906 33.976562 L 0.988281 33.976562 Z M 0.988281 3.03125 " clip-rule="nonzero"/></clipPath><clipPath id="ff4ac84827"><path d="M 0.988281 0.03125 L 93.503906 0.03125 L 93.503906 30.976562 L 0.988281 30.976562 Z M 0.988281 0.03125 " clip-rule="nonzero"/></clipPath><clipPath id="5563a5d502"><rect x="0" width="94" y="0" height="31"/></clipPath><clipPath id="a5dbae21c9"><path d="M 1 0.578125 L 9 0.578125 L 9 22 L 1 22 Z M 1 0.578125 " clip-rule="nonzero"/></clipPath><clipPath id="371db9215f"><path d="M 94 0.578125 L 109 0.578125 L 109 19 L 94 19 Z M 94 0.578125 " clip-rule="nonzero"/></clipPath><clipPath id="641f040f53"><rect x="0" width="179" y="0" height="25"/></clipPath></defs><g clip-path="url(#0fca930b8c)"><g transform="matrix(1, 0, 0, 1, 0.000000000000000111, 3)"><g clip-path="url(#5563a5d502)"><g clip-path="url(#ff4ac84827)"><path fill="#895a40" d="M 0.988281 0.03125 L 93.464844 0.03125 L 93.464844 30.976562 L 0.988281 30.976562 Z M 0.988281 0.03125 " fill-opacity="1" fill-rule="nonzero"/></g></g></g></g><g transform="matrix(1, 0, 0, 1, 4, 7)"><g clip-path="url(#641f040f53)"><g clip-path="url(#a5dbae21c9)"><g fill="#ffffff" fill-opacity="1"><g transform="translate(1.000208, 18.103405)"><g><path d="M 7.09375 -3.609375 C 7.09375 -2.148438 6.800781 -0.890625 6.21875 0.171875 C 5.632812 1.234375 4.816406 2.050781 3.765625 2.625 C 2.710938 3.195312 1.492188 3.507812 0.109375 3.5625 L 0.109375 0.28125 C 2.503906 0.15625 3.703125 -1.160156 3.703125 -3.671875 L 3.703125 -17.109375 L 7.09375 -17.109375 Z M 7.09375 -3.609375 "/></g></g></g></g><g fill="#ffffff" fill-opacity="1"><g transform="translate(10.299638, 18.103405)"><g><path d="M 6.75 -2.484375 C 7.394531 -2.484375 8.066406 -2.707031 8.765625 -3.15625 L 10.203125 -0.75 C 9.648438 -0.4375 9.0625 -0.1875 8.4375 0 C 7.820312 0.1875 7.234375 0.28125 6.671875 0.28125 C 5.460938 0.28125 4.421875 0.0507812 3.546875 -0.40625 C 2.671875 -0.863281 2.007812 -1.503906 1.5625 -2.328125 C 1.113281 -3.160156 0.890625 -4.113281 0.890625 -5.1875 C 0.890625 -6.175781 1.144531 -7.085938 1.65625 -7.921875 C 2.175781 -8.765625 2.882812 -9.429688 3.78125 -9.921875 C 4.6875 -10.410156 5.675781 -10.65625 6.75 -10.65625 C 8.195312 -10.65625 9.390625 -10.226562 10.328125 -9.375 C 11.265625 -8.519531 11.875 -7.300781 12.15625 -5.71875 L 4.71875 -3.34375 C 5.21875 -2.769531 5.894531 -2.484375 6.75 -2.484375 Z M 6.484375 -8.109375 C 5.753906 -8.109375 5.171875 -7.859375 4.734375 -7.359375 C 4.304688 -6.867188 4.09375 -6.207031 4.09375 -5.375 L 4.09375 -5.15625 L 8.5625 -6.671875 C 8.226562 -7.628906 7.535156 -8.109375 6.484375 -8.109375 Z M 6.484375 -8.109375 "/></g></g></g><g fill="#ffffff" fill-opacity="1"><g transform="translate(23.156104, 18.103405)"><g><path d="M 8.734375 -10.65625 C 9.703125 -10.65625 10.503906 -10.363281 11.140625 -9.78125 C 11.785156 -9.207031 12.117188 -8.484375 12.140625 -7.609375 L 12.140625 0 L 8.875 0 L 8.875 -6.390625 C 8.832031 -7.378906 8.335938 -7.875 7.390625 -7.875 C 6.648438 -7.875 6.050781 -7.523438 5.59375 -6.828125 C 5.144531 -6.140625 4.921875 -5.242188 4.921875 -4.140625 L 4.921875 0 L 1.671875 0 L 1.671875 -10.15625 L 4.625 -10.15625 L 4.859375 -8.53125 C 5.234375 -9.195312 5.75 -9.71875 6.40625 -10.09375 C 7.0625 -10.46875 7.835938 -10.65625 8.734375 -10.65625 Z M 8.734375 -10.65625 "/></g></g></g><g fill="#ffffff" fill-opacity="1"><g transform="translate(36.965764, 18.103405)"><g><path d="M 8.734375 -10.65625 C 9.703125 -10.65625 10.503906 -10.363281 11.140625 -9.78125 C 11.785156 -9.207031 12.117188 -8.484375 12.140625 -7.609375 L 12.140625 0 L 8.875 0 L 8.875 -6.390625 C 8.832031 -7.378906 8.335938 -7.875 7.390625 -7.875 C 6.648438 -7.875 6.050781 -7.523438 5.59375 -6.828125 C 5.144531 -6.140625 4.921875 -5.242188 4.921875 -4.140625 L 4.921875 0 L 1.671875 0 L 1.671875 -10.15625 L 4.625 -10.15625 L 4.859375 -8.53125 C 5.234375 -9.195312 5.75 -9.71875 6.40625 -10.09375 C 7.0625 -10.46875 7.835938 -10.65625 8.734375 -10.65625 Z M 8.734375 -10.65625 "/></g></g></g><g fill="#ffffff" fill-opacity="1"><g transform="translate(50.775424, 18.103405)"><g><path d="M 4.921875 -10.15625 L 4.921875 0 L 1.671875 0 L 1.671875 -10.15625 Z M 1.609375 -13.765625 C 1.609375 -14.222656 1.789062 -14.609375 2.15625 -14.921875 C 2.519531 -15.242188 2.9375 -15.40625 3.40625 -15.40625 C 3.851562 -15.40625 4.253906 -15.242188 4.609375 -14.921875 C 4.960938 -14.609375 5.140625 -14.222656 5.140625 -13.765625 C 5.140625 -13.296875 4.960938 -12.90625 4.609375 -12.59375 C 4.253906 -12.28125 3.851562 -12.125 3.40625 -12.125 C 2.9375 -12.125 2.519531 -12.28125 2.15625 -12.59375 C 1.789062 -12.90625 1.609375 -13.296875 1.609375 -13.765625 Z M 1.609375 -13.765625 "/></g></g></g><g fill="#ffffff" fill-opacity="1"><g transform="translate(57.378024, 18.103405)"><g><path d="M 6.75 -2.484375 C 7.394531 -2.484375 8.066406 -2.707031 8.765625 -3.15625 L 10.203125 -0.75 C 9.648438 -0.4375 9.0625 -0.1875 8.4375 0 C 7.820312 0.1875 7.234375 0.28125 6.671875 0.28125 C 5.460938 0.28125 4.421875 0.0507812 3.546875 -0.40625 C 2.671875 -0.863281 2.007812 -1.503906 1.5625 -2.328125 C 1.113281 -3.160156 0.890625 -4.113281 0.890625 -5.1875 C 0.890625 -6.175781 1.144531 -7.085938 1.65625 -7.921875 C 2.175781 -8.765625 2.882812 -9.429688 3.78125 -9.921875 C 4.6875 -10.410156 5.675781 -10.65625 6.75 -10.65625 C 8.195312 -10.65625 9.390625 -10.226562 10.328125 -9.375 C 11.265625 -8.519531 11.875 -7.300781 12.15625 -5.71875 L 4.71875 -3.34375 C 5.21875 -2.769531 5.894531 -2.484375 6.75 -2.484375 Z M 6.484375 -8.109375 C 5.753906 -8.109375 5.171875 -7.859375 4.734375 -7.359375 C 4.304688 -6.867188 4.09375 -6.207031 4.09375 -5.375 L 4.09375 -5.15625 L 8.5625 -6.671875 C 8.226562 -7.628906 7.535156 -8.109375 6.484375 -8.109375 Z M 6.484375 -8.109375 "/></g></g></g><g fill="#ffffff" fill-opacity="1"><g transform="translate(70.23449, 18.103405)"><g><path d="M 0.46875 -13.640625 C 0.757812 -13.921875 1.003906 -14.296875 1.203125 -14.765625 C 1.410156 -15.242188 1.515625 -15.71875 1.515625 -16.1875 C 1.515625 -16.3125 1.5 -16.476562 1.46875 -16.6875 L 3.953125 -16.859375 C 3.984375 -16.671875 4 -16.523438 4 -16.421875 C 4 -15.785156 3.8125 -15.125 3.4375 -14.4375 C 3.070312 -13.757812 2.640625 -13.28125 2.140625 -13 Z M 0.46875 -13.640625 "/></g></g></g><g fill="#ffffff" fill-opacity="1"><g transform="translate(74.814465, 18.103405)"><g><path d="M 4.96875 0.203125 C 4.132812 0.203125 3.351562 0.0546875 2.625 -0.234375 C 1.894531 -0.523438 1.289062 -0.9375 0.8125 -1.46875 L 2.15625 -3.25 C 3.0625 -2.414062 3.910156 -2 4.703125 -2 C 5.117188 -2 5.453125 -2.0625 5.703125 -2.1875 C 5.960938 -2.320312 6.09375 -2.523438 6.09375 -2.796875 C 6.09375 -3.097656 5.941406 -3.332031 5.640625 -3.5 C 5.347656 -3.664062 5.019531 -3.800781 4.65625 -3.90625 C 4.289062 -4.007812 4.046875 -4.078125 3.921875 -4.109375 C 3.046875 -4.390625 2.390625 -4.804688 1.953125 -5.359375 C 1.515625 -5.910156 1.296875 -6.539062 1.296875 -7.25 C 1.296875 -7.789062 1.4375 -8.320312 1.71875 -8.84375 C 2.007812 -9.363281 2.457031 -9.789062 3.0625 -10.125 C 3.664062 -10.457031 4.421875 -10.625 5.328125 -10.625 C 6.160156 -10.625 6.867188 -10.535156 7.453125 -10.359375 C 8.046875 -10.191406 8.613281 -9.914062 9.15625 -9.53125 L 7.921875 -7.625 C 7.617188 -7.875 7.273438 -8.078125 6.890625 -8.234375 C 6.515625 -8.398438 6.171875 -8.484375 5.859375 -8.484375 C 5.484375 -8.484375 5.179688 -8.40625 4.953125 -8.25 C 4.722656 -8.09375 4.609375 -7.910156 4.609375 -7.703125 C 4.585938 -7.367188 4.71875 -7.117188 5 -6.953125 C 5.289062 -6.796875 5.738281 -6.632812 6.34375 -6.46875 C 6.4375 -6.4375 6.53125 -6.40625 6.625 -6.375 C 6.726562 -6.34375 6.835938 -6.3125 6.953125 -6.28125 C 8.546875 -5.75 9.34375 -4.785156 9.34375 -3.390625 C 9.34375 -2.742188 9.179688 -2.148438 8.859375 -1.609375 C 8.535156 -1.066406 8.039062 -0.628906 7.375 -0.296875 C 6.71875 0.0351562 5.914062 0.203125 4.96875 0.203125 Z M 4.96875 0.203125 "/></g></g></g><g fill="#ffffff" fill-opacity="1"><g transform="translate(85.206577, 18.103405)"><g/></g></g><g clip-path="url(#371db9215f)"><g fill="#895a40" fill-opacity="1"><g transform="translate(92.766072, 18.103405)"><g><path d="M 11.4375 0 L 7.828125 -5.4375 L 5.578125 -5.4375 L 5.578125 0 L 2.203125 0 L 2.203125 -17.109375 L 7.390625 -17.109375 C 9.515625 -17.109375 11.160156 -16.59375 12.328125 -15.5625 C 13.503906 -14.53125 14.09375 -13.125 14.09375 -11.34375 C 14.09375 -10.289062 13.867188 -9.300781 13.421875 -8.375 C 12.984375 -7.457031 12.304688 -6.734375 11.390625 -6.203125 L 15.375 0 Z M 5.578125 -8.703125 L 7.96875 -8.703125 C 8.882812 -8.703125 9.550781 -8.96875 9.96875 -9.5 C 10.394531 -10.03125 10.609375 -10.609375 10.609375 -11.234375 C 10.609375 -11.847656 10.425781 -12.4375 10.0625 -13 C 9.707031 -13.570312 9.019531 -13.859375 8 -13.859375 L 5.578125 -13.859375 Z M 5.578125 -8.703125 "/></g></g></g></g><g fill="#895a40" fill-opacity="1"><g transform="translate(108.24953, 18.103405)"><g><path d="M 6.75 -2.484375 C 7.394531 -2.484375 8.066406 -2.707031 8.765625 -3.15625 L 10.203125 -0.75 C 9.648438 -0.4375 9.0625 -0.1875 8.4375 0 C 7.820312 0.1875 7.234375 0.28125 6.671875 0.28125 C 5.460938 0.28125 4.421875 0.0507812 3.546875 -0.40625 C 2.671875 -0.863281 2.007812 -1.503906 1.5625 -2.328125 C 1.113281 -3.160156 0.890625 -4.113281 0.890625 -5.1875 C 0.890625 -6.175781 1.144531 -7.085938 1.65625 -7.921875 C 2.175781 -8.765625 2.882812 -9.429688 3.78125 -9.921875 C 4.6875 -10.410156 5.675781 -10.65625 6.75 -10.65625 C 8.195312 -10.65625 9.390625 -10.226562 10.328125 -9.375 C 11.265625 -8.519531 11.875 -7.300781 12.15625 -5.71875 L 4.71875 -3.34375 C 5.21875 -2.769531 5.894531 -2.484375 6.75 -2.484375 Z M 6.484375 -8.109375 C 5.753906 -8.109375 5.171875 -7.859375 4.734375 -7.359375 C 4.304688 -6.867188 4.09375 -6.207031 4.09375 -5.375 L 4.09375 -5.15625 L 8.5625 -6.671875 C 8.226562 -7.628906 7.535156 -8.109375 6.484375 -8.109375 Z M 7.859375 -11.859375 L 5.875 -11.859375 L 7.703125 -15 L 11.296875 -15 Z M 7.859375 -11.859375 "/></g></g></g><g fill="#895a40" fill-opacity="1"><g transform="translate(121.105996, 18.103405)"><g><path d="M 4.96875 0.203125 C 4.132812 0.203125 3.351562 0.0546875 2.625 -0.234375 C 1.894531 -0.523438 1.289062 -0.9375 0.8125 -1.46875 L 2.15625 -3.25 C 3.0625 -2.414062 3.910156 -2 4.703125 -2 C 5.117188 -2 5.453125 -2.0625 5.703125 -2.1875 C 5.960938 -2.320312 6.09375 -2.523438 6.09375 -2.796875 C 6.09375 -3.097656 5.941406 -3.332031 5.640625 -3.5 C 5.347656 -3.664062 5.019531 -3.800781 4.65625 -3.90625 C 4.289062 -4.007812 4.046875 -4.078125 3.921875 -4.109375 C 3.046875 -4.390625 2.390625 -4.804688 1.953125 -5.359375 C 1.515625 -5.910156 1.296875 -6.539062 1.296875 -7.25 C 1.296875 -7.789062 1.4375 -8.320312 1.71875 -8.84375 C 2.007812 -9.363281 2.457031 -9.789062 3.0625 -10.125 C 3.664062 -10.457031 4.421875 -10.625 5.328125 -10.625 C 6.160156 -10.625 6.867188 -10.535156 7.453125 -10.359375 C 8.046875 -10.191406 8.613281 -9.914062 9.15625 -9.53125 L 7.921875 -7.625 C 7.617188 -7.875 7.273438 -8.078125 6.890625 -8.234375 C 6.515625 -8.398438 6.171875 -8.484375 5.859375 -8.484375 C 5.484375 -8.484375 5.179688 -8.40625 4.953125 -8.25 C 4.722656 -8.09375 4.609375 -7.910156 4.609375 -7.703125 C 4.585938 -7.367188 4.71875 -7.117188 5 -6.953125 C 5.289062 -6.796875 5.738281 -6.632812 6.34375 -6.46875 C 6.4375 -6.4375 6.53125 -6.40625 6.625 -6.375 C 6.726562 -6.34375 6.835938 -6.3125 6.953125 -6.28125 C 8.546875 -5.75 9.34375 -4.785156 9.34375 -3.390625 C 9.34375 -2.742188 9.179688 -2.148438 8.859375 -1.609375 C 8.535156 -1.066406 8.039062 -0.628906 7.375 -0.296875 C 6.71875 0.0351562 5.914062 0.203125 4.96875 0.203125 Z M 4.96875 0.203125 "/></g></g></g><g fill="#895a40" fill-opacity="1"><g transform="translate(131.498109, 18.103405)"><g><path d="M 11.90625 -10.15625 L 11.90625 0 L 8.953125 0 L 8.71875 -1.625 C 8.363281 -0.976562 7.863281 -0.460938 7.21875 -0.078125 C 6.570312 0.296875 5.816406 0.484375 4.953125 0.484375 C 4.023438 0.484375 3.25 0.195312 2.625 -0.375 C 2.007812 -0.945312 1.691406 -1.675781 1.671875 -2.5625 L 1.671875 -10.15625 L 4.921875 -10.15625 L 4.921875 -3.765625 C 4.972656 -2.773438 5.429688 -2.28125 6.296875 -2.28125 C 7.015625 -2.28125 7.585938 -2.628906 8.015625 -3.328125 C 8.441406 -4.023438 8.65625 -4.921875 8.65625 -6.015625 L 8.65625 -10.15625 Z M 11.90625 -10.15625 "/></g></g></g><g fill="#895a40" fill-opacity="1"><g transform="translate(145.075283, 18.103405)"><g><path d="M 15.0625 -10.671875 C 16.050781 -10.671875 16.84375 -10.390625 17.4375 -9.828125 C 18.039062 -9.273438 18.359375 -8.539062 18.390625 -7.625 L 18.390625 0 L 15.15625 0 L 15.15625 -6.28125 C 15.125 -6.789062 15.035156 -7.171875 14.890625 -7.421875 C 14.753906 -7.679688 14.488281 -7.828125 14.09375 -7.859375 C 13.332031 -7.859375 12.738281 -7.488281 12.3125 -6.75 C 11.882812 -6.019531 11.671875 -5.15625 11.671875 -4.15625 L 11.671875 0 L 8.421875 0 L 8.421875 -6.28125 C 8.390625 -6.789062 8.296875 -7.171875 8.140625 -7.421875 C 7.984375 -7.679688 7.695312 -7.828125 7.28125 -7.859375 C 6.550781 -7.859375 5.972656 -7.488281 5.546875 -6.75 C 5.128906 -6.019531 4.921875 -5.171875 4.921875 -4.203125 L 4.921875 0 L 1.671875 0 L 1.671875 -10.15625 L 4.625 -10.15625 L 4.859375 -8.5625 C 5.679688 -9.96875 6.90625 -10.671875 8.53125 -10.671875 C 9.351562 -10.671875 10.03125 -10.503906 10.5625 -10.171875 C 11.101562 -9.835938 11.472656 -9.347656 11.671875 -8.703125 C 12.109375 -9.304688 12.625 -9.785156 13.21875 -10.140625 C 13.8125 -10.492188 14.425781 -10.671875 15.0625 -10.671875 Z M 15.0625 -10.671875 "/></g></g></g><g fill="#895a40" fill-opacity="1"><g transform="translate(165.138809, 18.103405)"><g><path d="M 6.75 -2.484375 C 7.394531 -2.484375 8.066406 -2.707031 8.765625 -3.15625 L 10.203125 -0.75 C 9.648438 -0.4375 9.0625 -0.1875 8.4375 0 C 7.820312 0.1875 7.234375 0.28125 6.671875 0.28125 C 5.460938 0.28125 4.421875 0.0507812 3.546875 -0.40625 C 2.671875 -0.863281 2.007812 -1.503906 1.5625 -2.328125 C 1.113281 -3.160156 0.890625 -4.113281 0.890625 -5.1875 C 0.890625 -6.175781 1.144531 -7.085938 1.65625 -7.921875 C 2.175781 -8.765625 2.882812 -9.429688 3.78125 -9.921875 C 4.6875 -10.410156 5.675781 -10.65625 6.75 -10.65625 C 8.195312 -10.65625 9.390625 -10.226562 10.328125 -9.375 C 11.265625 -8.519531 11.875 -7.300781 12.15625 -5.71875 L 4.71875 -3.34375 C 5.21875 -2.769531 5.894531 -2.484375 6.75 -2.484375 Z M 6.484375 -8.109375 C 5.753906 -8.109375 5.171875 -7.859375 4.734375 -7.359375 C 4.304688 -6.867188 4.09375 -6.207031 4.09375 -5.375 L 4.09375 -5.15625 L 8.5625 -6.671875 C 8.226562 -7.628906 7.535156 -8.109375 6.484375 -8.109375 Z M 7.859375 -11.859375 L 5.875 -11.859375 L 7.703125 -15 L 11.296875 -15 Z M 7.859375 -11.859375 "/></g></g></g></g></g></svg>